<?xml version="1.0" encoding="UTF-8"?>
<svg id="Camada_2" data-name="Camada 2" xmlns="http://www.w3.org/2000/svg" viewBox="0 0 189.84 181.26">
  <defs>
    <style>
      .cls-1 {
        fill: #f5f7f8;
      }

      .cls-1, .cls-2 {
        stroke-width: 0px;
      }

      .cls-2 {
        fill: #00bdc9;
      }
    </style>
  </defs>
  <g id="Camada_1-2" data-name="Camada 1">
    <g>
      <path class="cls-2" d="M51.47,51.53C48.04,17.98,73.13.07,94.7,0c22.11-.07,46.96,17.9,43.76,51.62,5.63-.31,11.23-.61,16.75.59,18.19,3.95,31.62,18.53,34.24,37.25,2.5,17.89-7.01,35.99-23.34,44.45-16.49,8.54-36.53,5.82-49.99-7.11-6.95-6.68-13.48-13.8-21.16-21.7-6.91,7.17-13.15,13.99-19.77,20.43-23.74,23.1-61.54,14.74-72.6-15.95-10.74-29.81,13.52-61.08,45.04-58.06,1.14.11,2.29.01,3.85.01ZM83.78,94.87c-7.32-7.39-14.09-14.98-21.65-21.69-11.36-10.09-28.92-8.81-39.2,2.22-10.26,11-10.32,28.11-.15,38.99,10.57,11.32,27.56,12.8,39.09,2.64,7.7-6.78,14.5-14.6,21.92-22.17ZM95.07,84.43c6.54-6.62,12.73-12.85,18.87-19.12,1.39-1.42,2.76-2.89,3.94-4.49,8.96-12.12,7.08-28.83-4.3-38.73-11.21-9.75-28.48-9.08-38.95,1.5-10.58,10.69-11.35,27.81-1.28,38.92,6.68,7.38,14.01,14.18,21.72,21.92ZM106.52,95.4c7.17,7.27,13.96,15.12,21.74,21.84,11.53,9.95,28.3,8.39,38.75-2.75,9.99-10.64,10.26-27.37.63-38.28-9.89-11.2-26.96-13.61-38.26-4.17-8.24,6.88-15.14,15.36-22.86,23.37Z"/>
      <path class="cls-1" d="M102.17,138.98v42.28h-42.19v-16.37h25.72v-25.91h16.47Z"/>
    </g>
  </g>
</svg>